<svg width="80" height="80" fill="none" xmlns="http://www.w3.org/2000/svg"><path d="M71.406 18.61c.594.25.922.609 1.031 1.171.141.735.016 1-1.187 2.516-.938 1.187-1.047 1.406-.86 1.61.126.124 1.97 1.75 4.11 3.593 2.14 1.844 4.016 3.547 4.156 3.781.219.344.25 1.016.25 4.89v4.485l.547.969.547.984v7.516l-1.39 2.11c-1.61 2.421-1.657 2.453-3.782 2.453h-1.36l-.343 1c-.844 2.53-2.953 4.64-5.469 5.421-1.453.453-3.781.453-5.156-.015-2.625-.875-4.578-2.797-5.422-5.313l-.344-1.015-4.28-.078c-4.454-.079-4.5-.094-5.063-.782-.11-.125-.203-.531-.203-.906 0-.547.093-.766.453-1.14l.453-.454h8.609l.188-.672c.765-2.875 3.64-5.515 6.625-6.062 4.14-.766 8.312 1.703 9.625 5.687l.343 1.047h1.672l.86-1.281.859-1.297v-4.922l-.625-1.25-.625-1.25v-8.515l-3.688-3.203c-2.03-1.766-3.937-3.47-4.218-3.813-.688-.813-.953-1.969-.703-3.016.109-.406.265-.843.359-.953.14-.172-2.39-.187-14.422-.156l-14.594.063-1.484.406c-.813.218-1.969.625-2.563.89-2.25 1.016-3.093 1.735-8.374 7.047l-5.079 5.125-2.5.578c-4.812 1.125-8.28 1.985-8.578 2.141-.25.14-.187.219.516.688.969.656 1.515 1.437 1.75 2.515.375 1.656-.375 3.344-1.844 4.219-.75.437-.781.437-3.812.484l-3.079.047-.093.484c-.047.266-.094.922-.094 1.454 0 .875.078 1.109.719 2.25l.719 1.265h6.343l.188-.75c.297-1.203 1.11-2.547 2.203-3.64 3.219-3.235 8.328-3.313 11.719-.172 1.093 1 1.765 2.031 2.25 3.422l.375 1.062 4.062.078c4 .078 4.063.078 4.453.453.516.485.64 1.094.344 1.782-.406.984-.688 1.047-5.063 1.047h-3.906l-.093.53c-.204 1.048-1.22 2.798-2.188 3.766-2.688 2.672-6.734 3.25-10.125 1.453-1.75-.921-3.375-2.906-3.938-4.78l-.296-.97H7.156c-2.843 0-3.86-.046-4.25-.218-.437-.188-.719-.578-1.719-2.313L0 50.063v-2.579c0-3.047.25-4.297 1.25-6.218 1.297-2.5 3.5-4.563 6.25-5.86 1.453-.672 3.219-1.172 9.813-2.687l1.921-.453 4.453-4.563c2.641-2.719 4.985-4.969 5.735-5.531 2.64-1.969 5.906-3.219 9.344-3.578 2.093-.203 32.093-.203 32.64.015zM5.687 40.812c-.75.796-1.312 1.515-1.312 1.703 0 .078.953.14 2.11.14 1.906 0 2.109-.031 2.265-.297.078-.172.125-.406.078-.515-.078-.172-2.203-1.657-2.422-1.672-.047-.016-.375.281-.718.64zm57.22 7.53c-1.938.954-3.235 3.204-2.985 5.173.437 3.5 4.078 5.64 7.219 4.218 2.968-1.328 4.046-4.875 2.265-7.484-.734-1.063-1.375-1.594-2.5-2.078-1.203-.5-2.75-.438-4 .172zm-45.798-.046c-.984.469-2.093 1.562-2.578 2.562-.562 1.141-.562 3.094.016 4.297.719 1.5 1.922 2.485 3.562 2.907 1.75.437 3.485-.094 4.875-1.516.953-.969 1.422-2.172 1.422-3.61 0-2.187-1.515-4.203-3.672-4.906-.968-.312-2.672-.187-3.625.266z" fill="#000"/><path d="M61.437 24.438c.672.234.828.375 4.453 3.734 2.125 1.969 2.735 2.625 2.86 3.062.203.766.203.922-.156 1.703-.391.876-1.157 1.22-3.047 1.344-.782.047-9.188.719-18.72 1.5-9.515.766-17.593 1.407-17.937 1.407-1.234 0-2.172-.97-2.172-2.266 0-.313.079-.719.188-.906.297-.578 5.063-5.938 5.844-6.594 1.86-1.547 4.36-2.656 6.781-3.047 1.625-.25 21.172-.203 21.906.063zm-13.625 5.484v2.422h.453c.657 0 15.688-1.235 15.735-1.297.031-.031-.797-.844-1.844-1.797L60.25 27.5H47.812v2.422zm-8.36-2.188c-1.343.282-3 1.063-4.171 1.97-.844.64-3.813 3.843-3.688 3.968.032.047 12.422-.922 12.891-1.016.031 0 .047-1.156.047-2.578V27.5h-2c-1.14 0-2.438.11-3.078.234zm28.626 10.219c.89.563.953 1.906.125 2.625-.39.344-.547.36-2.734.36h-2.344l-.5-.454c-.438-.39-.516-.562-.516-1.172 0-.562.094-.796.438-1.14.422-.438.453-.438 2.734-.484 2.063-.032 2.344-.016 2.797.265zm-21.062 2.11c1.062.593 1.031 2.374-.063 2.874-.25.11-1.203.188-2.5.188s-2.25-.078-2.5-.188c-1.11-.5-1.11-2.406 0-2.906.578-.265 4.563-.25 5.063.032z" fill="#F8A51A"/><path d="M42.781 51.797c1.375 1.156.172 3.266-1.562 2.75-.688-.219-1.063-.797-1.063-1.656 0-1.297 1.594-1.953 2.625-1.094z" fill="#000"/></svg>