<svg width="80" height="80" fill="none" xmlns="http://www.w3.org/2000/svg"><path d="M14.531 14.531v1.563h-2.016c-1.796 0-2.046.031-2.421.328-.391.312-.407.36-.407 2.187v1.86H6.265c-3.125 0-3.453.031-3.78.297l-.376.297-.047 4.203c-.047 4.078-.031 4.218.282 4.625.312.406.406.422 1.656.422h1.312v18.593c0 18.39 0 18.594.313 18.907.312.312.515.312 34.375.312s34.062 0 34.375-.313c.312-.312.312-.515.312-18.906V30.313H76c1.25 0 1.344-.016 1.656-.422.313-.407.328-.547.281-4.625l-.047-4.203-.375-.297c-.328-.266-.656-.297-3.78-.297h-3.423v-1.86c0-1.828-.015-1.875-.406-2.187-.36-.281-.64-.328-2.11-.328h-1.703v-3.125H63.75v3.125h-1.797c-1.719 0-1.828.015-2.188.39-.375.36-.39.47-.39 2.188v1.797h-5.313v-1.844c0-1-.062-1.906-.125-2-.265-.406-.875-.531-2.437-.531h-1.657v-3.125H47.5v3.093l-1.89.063c-2.485.063-2.485.063-2.485 2.563v1.78H38l-.063-1.874c-.062-2.453-.015-2.407-2.468-2.469l-1.876-.063V12.97H31.25v3.125h-1.64c-.892 0-1.798.078-2.017.172-.546.25-.718.89-.718 2.656v1.547h-5.157v-1.782c0-2.53.032-2.5-2.718-2.562l-2.125-.063V12.97H14.53v1.562zm4.844 4.922v1.016H12.03v-2.031h7.344v1.015zm16.25 0v1.016h-6.406v-2.031h6.406v1.015zm16.25 0v1.016h-6.406v-2.031h6.406v1.015zm16.094 0v1.016h-6.25v-2.031h6.25v1.015zm7.656 5.938v2.578H4.375v-5.156h71.25v2.578zm-3.281 22.734v17.813H7.656V30.312h64.688v17.813z" fill="#000"/><path d="M14.063 35.234v1.328h-2.657v2.344h2.657v2.672l1.14-.047 1.125-.047.047-1.297.047-1.28h2.484v-2.346h-2.5v-2.656h-2.343v1.328zm22.765-.671c-.422.312-6.984 14.312-6.984 14.89 0 .953.203 1 3.86 1.047l3.28.047-1.234 5.594c-1.094 4.968-1.219 5.625-1.031 6 .265.562 1.062.812 1.562.484.203-.14 3.39-4.11 7.078-8.812 7.094-9.063 7.172-9.188 6.578-9.985-.218-.297-.453-.312-4.421-.39l-4.203-.079 1.671-3.671c.953-2.079 1.688-3.891 1.688-4.172.016-.36-.094-.578-.39-.813-.391-.312-.61-.328-3.798-.328-2.468 0-3.468.047-3.656.188zm4.672 2.656c-.11.281-.89 2-1.719 3.812-.828 1.813-1.5 3.438-1.5 3.61 0 .187.14.484.297.687.297.375.344.375 4.14.453l3.844.078-4.14 5.313c-2.281 2.922-4.219 5.375-4.281 5.437-.078.079.218-1.406.625-3.265.828-3.688.906-4.344.5-4.781-.235-.25-.547-.282-3.36-.282-1.703 0-3.093-.015-3.093-.047 0-.062 4.859-10.312 5.218-11.015l.266-.5h3.422l-.219.5zm19.594.515v1.172h7.5v-2.344h-7.5v1.172z" fill="#F8A51A"/></svg>