<svg width="80" height="80" fill="none" xmlns="http://www.w3.org/2000/svg"><g clip-path="url(#clip0_367_512)"><path d="M7.063.469C5.313.938 4.14 1.625 2.734 3.047.781 5 0 6.907 0 9.657c0 2.78.797 4.718 2.734 6.687.954.953 1.532 1.406 2.422 1.843 2.782 1.344 5.813 1.344 8.594 0 .89-.437 1.484-.89 2.422-1.843 1.953-1.969 2.75-3.89 2.75-6.657 0-1.703-.281-2.937-.969-4.328-1.969-3.921-6.61-6.015-10.89-4.89zM11.405 3c2.922.89 5 3.656 5 6.672 0 3-2.11 5.828-4.968 6.656-5.126 1.5-10.032-3.203-8.704-8.36.672-2.593 3.047-4.78 5.594-5.155.922-.141 2.266-.063 3.078.187zM37.844.39c-3.485.766-6.406 3.735-7.156 7.282-.735 3.406.625 7.281 3.25 9.375C35.578 18.344 38 19.219 40 19.219s4.422-.875 6.063-2.172c2.625-2.094 3.984-5.969 3.25-9.375-.766-3.594-3.688-6.531-7.22-7.281-1.327-.282-2.952-.282-4.25 0zm4.234 2.688c1.094.344 1.938.86 2.797 1.703 2.156 2.11 2.672 5.219 1.313 7.953a6.8 6.8 0 01-3.141 3.141c-2.016 1-4.078 1-6.094 0-4.281-2.11-5.219-7.766-1.828-11.094 1.906-1.875 4.469-2.5 6.953-1.703zM68.156.469c-3.344.875-5.969 3.5-6.828 6.796-.312 1.22-.312 3.641 0 4.844.453 1.672 1.156 2.875 2.5 4.235.938.953 1.531 1.406 2.422 1.843 2.031.985 4.156 1.25 6.328.797 2.656-.562 3.61-1.64 2.531-2.86-.406-.437-.765-.437-2.078.063-2.031.782-4.453.5-6.297-.734-3.234-2.156-4.109-6.36-1.968-9.578 2.421-3.64 7.468-4.203 10.562-1.172 2.438 2.39 2.86 5.812 1.078 8.719-.578.937-.61 1.61-.078 2.125.563.578 1.11.5 1.797-.203C79.297 14.109 80 11.969 80 9.656c0-2.75-.781-4.656-2.734-6.61C75.844 1.61 74.687.923 72.875.47a9.647 9.647 0 00-4.719 0z" fill="#F8A51A"/><path d="M17.515 16.734c-.89.344-1.062 1.344-.359 2.125.235.266 2.5 2.47 5.031 4.907 2.532 2.437 5.313 5.109 6.188 5.953C29.844 31.14 30 31.25 30.578 31.25c.969 0 1.563-.938 1.11-1.75-.188-.36-12.61-12.438-13-12.64-.391-.22-.813-.266-1.172-.126zm42.766.563c-1.563 1.297-12.75 11.547-12.969 11.89-.39.579-.343 1.079.11 1.516.25.266.547.39.922.39.609 0-.11.61 9.124-7.78 4.97-4.532 5.032-4.594 5.032-5.204 0-1.218-1.188-1.656-2.219-.812zm-21.187 3.687c-.328.344-.344.5-.344 3.094.016 2.922.063 3.11.828 3.406.484.188 1.14 0 1.453-.422.157-.187.203-1 .219-3.015 0-2.672-.016-2.75-.36-3.078-.5-.47-1.359-.454-1.796.015zm-1.578 8.079c-4.938 1.296-8.016 6.5-6.75 11.437.36 1.406 1.14 3.016 1.562 3.25.516.266 1.11.172 1.5-.234.469-.453.5-1.047.078-1.86-1.453-2.86-.984-6.11 1.188-8.281 1.562-1.563 3.812-2.328 5.906-1.984a7.003 7.003 0 015.61 4.812c.765 2.422.25 4.781-1.438 6.64-1.203 1.329-1.36 1.798-.781 2.532.25.328.453.406.968.406.579 0 .72-.093 1.47-.875 2.843-3 3.484-7.265 1.655-10.984-.734-1.484-2.343-3.156-3.812-3.969-2.094-1.172-4.813-1.5-7.156-.89z" fill="#000"/><path d="M38.14 36.266c-1.374.265-2.562 1.25-3.203 2.64-.296.64-.328 1.063-.375 4.89-.062 3.829-.078 4.188-.312 4.079-.156-.078-.797-.156-1.469-.188-1.015-.046-1.312 0-2.031.344-.469.219-1.047.61-1.281.86l-.454.468-.687-.406c-.813-.469-2.406-.656-3.422-.375-1.234.328-2.531 1.563-2.953 2.781-.156.422-.297.578-.5.547a17.116 17.116 0 01-1.031-.172c-2.032-.36-3.969.703-4.86 2.64-.28.642-.328 1.079-.375 4.485-.062 4.047.157 7.719.516 8.578.406.97 1.5 1.063 2.14.204.282-.376.297-.516.141-1.516-.094-.625-.172-3.172-.172-5.813 0-4.093.032-4.78.25-5.156a1.926 1.926 0 012.657-.64c.718.437 1 1.187 1 2.625 0 1.093.046 1.28.359 1.578.5.468 1.266.453 1.75-.047.39-.375.39-.406.39-3.297 0-3.281.11-3.688 1.157-4.188.672-.312.922-.312 1.594 0 .984.47 1.156.985 1.156 3.454 0 1.984.031 2.234.328 2.609.25.312.453.406.906.406 1.14 0 1.172-.094 1.266-3.312.078-3.094.14-3.297 1.047-3.891.844-.563 2.062-.266 2.61.64.202.36.25.938.25 3.407 0 3.062.124 3.828.624 4.094.375.203 1.031.203 1.406 0 .594-.313.625-.875.625-9.797 0-7.75.032-8.719.25-9.11.563-.921 1.735-1.203 2.688-.625 1 .61.969.188.969 13.329v11.937l.359.328c.531.5 1.39.469 1.813-.062.328-.407.328-.516.328-12.485 0-13.625.047-13.062-1.172-14.422a4.587 4.587 0 00-4.281-1.421z" fill="#000"/><path d="M45.234 51.797c-.343.125-.703.344-.812.5-.297.39-.25 1.203.078 1.61.312.39.61.421 2.14.234.829-.094 1-.063 1.485.265.297.203.703.672.906 1.063.406.78.375 1.25-.14 2.422-.5 1.109-.75 2.609-.922 5.312-.47 7.172-2.438 11.531-6.016 13.266-1.656.812-2.734.906-9.219.843-5.61-.062-5.625-.062-6.765-.468-2.875-1.032-4.875-2.875-6.391-5.89-.844-1.688-1.047-1.892-1.781-1.892-.453 0-.657.094-.907.407-.453.578-.406.968.266 2.375 1.64 3.343 4.094 5.812 7.063 7.078 2.062.875 2.906.953 9.953.875 6.953-.063 7.094-.078 9.031-1.031 3.953-1.954 6.547-6.829 7.11-13.375.437-5.032.468-5.25.984-6.547.64-1.625.687-3.328.125-4.516-.469-.953-1.828-2.187-2.766-2.516-.906-.312-2.578-.312-3.422-.015z" fill="#000"/></g><defs><clipPath id="clip0_367_512"><path fill="#fff" d="M0 0h80v80H0z"/></clipPath></defs></svg>