<svg width="80" height="80" fill="none" xmlns="http://www.w3.org/2000/svg"><g clip-path="url(#clip0_367_475)"><path d="M36.328.266c-3.172.671-6.156 2.53-8.094 5.078-1.109 1.453-2.062 3.406-1.922 3.953.282 1.094 1.61 1.406 2.329.547.218-.25.453-.625.515-.813.328-1.062 2.016-3.14 3.328-4.094 1.938-1.421 3.938-2.109 6.438-2.234 2.281-.11 3.719.172 5.687 1.125 3.047 1.485 5.188 4.078 6.016 7.36.453 1.78.406 5.187-.078 5-.11-.032-1.5-1.11-3.078-2.391-7.172-5.813-6.985-5.672-7.547-5.672-.453 0-1.719.969-10.344 7.953-6.515 5.297-9.906 8.14-10.078 8.485-.266.484-.281 2.109-.281 27.328 0 19.172.047 26.953.172 27.312.093.266.297.563.453.64.39.22 39.922.22 40.312 0 .157-.077.36-.374.453-.64.235-.687.25-53.797 0-54.484-.125-.344-1.078-1.219-3.625-3.266-1.89-1.531-3.593-2.89-3.75-3.031-.297-.235-.297-.281-.062-1.016.844-2.625.672-5.828-.453-8.687-1.219-3.11-3.86-5.922-6.953-7.39C43.813.405 41.875 0 39.469.015c-1.172 0-2.516.109-3.14.25zm8.453 14.828c2.61 2.11 4.75 3.89 4.75 3.953 0 .281-1.781 2.375-2.578 3.015l-.906.735-.422-.594c-.484-.656-1.469-1.5-2.375-2.015-2.016-1.141-5-1.063-6.969.187-1.047.656-1.86 1.594-2.484 2.875-.531 1.063-.594 1.313-.64 2.688-.094 2.359.468 3.765 2.156 5.375 3.874 3.703 10.25 1.828 11.484-3.36.125-.547.234-1.36.234-1.797 0-.797.016-.812.828-1.343 1-.672 2.797-2.47 3.36-3.36.234-.375.468-.672.531-.672s1.516 1.14 3.234 2.516l3.141 2.515V77.5H22.031l.032-25.89.046-25.891L31 18.484c4.89-3.984 8.922-7.234 8.953-7.234.031 0 2.203 1.734 4.828 3.844zm-3.468 7.187c.421.14 1.078.578 1.546 1l.797.735-.843.25c-.47.14-1.25.297-1.72.359-.468.063-1.046.203-1.28.313-.782.406-.844 1.875-.079 2.28.422.22 2.391.063 3.516-.265.469-.14.875-.219.922-.172.187.188-.156 1.219-.625 1.922a4.134 4.134 0 01-5.969 1.016c-1.11-.844-1.687-1.844-1.766-3.094-.124-1.828.72-3.313 2.329-4.11 1.125-.562 2.015-.624 3.172-.234z" fill="#000"/><path d="M34.25 39.11c-.344.359-.344.39-.344 7.577v7.22h-.843c-1.204 0-1.797.25-2.063.859-.25.609-.047 1.39.406 1.64.157.094.782.156 1.39.156h1.11v2.032h-.843c-1.204 0-1.797.25-2.063.875-.188.453-.188.609 0 1.062.266.625.86.875 2.063.875h.843v3.453c0 1.985.063 3.563.157 3.735.234.453 1.14.687 1.671.437.75-.36.828-.703.828-4.297v-3.312l4.204-.047c4.203-.047 4.203-.047 4.609-.422.297-.281.406-.547.406-.953 0-.406-.11-.672-.406-.953-.406-.375-.406-.375-4.61-.422l-4.203-.047v-2.016h2.797c3.22 0 4.157-.203 5.735-1.218 3.89-2.516 5.218-7.657 3.078-11.891-.719-1.438-2.25-3.016-3.578-3.719-1.64-.875-2.375-.984-6.39-.984-3.579 0-3.626 0-3.954.36zm8.766 2.906c4.609 2.312 4.578 9.125-.032 11.39-.843.406-.984.422-3.64.469l-2.782.047V41.375l2.704.062 2.687.047 1.063.532z" fill="#F8A51A"/></g><defs><clipPath id="clip0_367_475"><path fill="#fff" d="M0 0h80v80H0z"/></clipPath></defs></svg>