<svg width="80" height="80" fill="none" xmlns="http://www.w3.org/2000/svg"><path d="M78.438 42.813c-.172-.172-.454-.313-.626-.313a.326.326 0 01-.068-.006h-.086l-.019.001h-1.112a7.34 7.34 0 00-.683.053c-.469.064-1.008.194-1.446-.048H62.5v-.002c-.51.029-1.038.02-1.555-.026-.315.008-.63.014-.945.017v.011H42.7c-.42.053-.86.036-1.275.056-.662.032-1.319.092-1.966-.056h-6.876c-.217.014-.435.019-.653.019-.325.092-.69.084-1.032.006-.301.01-.603.013-.893.008a.698.698 0 01-.194-.031H28.75V32.189c0-10.11 0-10.312-.313-10.625-.296-.297-.515-.312-8.406-.312-6.234 0-8.156.046-8.36.187-.14.11-2.546 4.203-5.343 9.11L1.25 39.452v9.328c0 9.14 0 9.344.313 9.657.296.296.515.312 3.75.312h3.421l.188.656a7.628 7.628 0 004.937 5.266c1.297.437 3.391.453 4.72.031 2.39-.734 4.343-2.812 5-5.297l.187-.656h32.468l.188.656a7.628 7.628 0 004.937 5.266c1.297.437 3.391.453 4.72.031 2.39-.734 4.343-2.812 5-5.297l.187-.656h3.421c3.235 0 3.454-.016 3.75-.313.297-.296.313-.515.313-7.812 0-7.297-.016-7.516-.313-7.813zM9.109 31.155l2.063-3.64 5.047-.016h5.031V35h-7.11c-3.906 0-7.109-.047-7.109-.094 0-.062.938-1.734 2.078-3.75zM3.75 45h1.172c.672 0 1.406.094 1.719.219.578.25.812.75.64 1.437-.14.563-.937.844-2.36.844H3.75V45zm15.938 15.938c-.954.953-1.75 1.296-3.22 1.374-1.124.063-1.39.016-2.124-.312-1.172-.547-1.906-1.234-2.469-2.344-.406-.812-.469-1.125-.469-2.156 0-1.031.063-1.344.469-2.156 1.203-2.407 3.906-3.375 6.328-2.297 1.063.469 1.797 1.14 2.36 2.14.406.75.453.97.453 2.313 0 1.703-.266 2.375-1.328 3.438zm6.562-4.688h-2.484l-.188-.672c-.656-2.469-2.61-4.547-5-5.281-1.328-.422-3.422-.406-4.719.031-2.359.781-4.203 2.688-4.875 5.031l-.25.891H3.75V50h1.719c1.937 0 2.562-.188 3.422-.984C9.656 48.28 10 47.453 10 46.25s-.344-2.031-1.11-2.766c-.859-.797-1.484-.984-3.421-.984H3.75v-.969c0-.875.078-1.093.875-2.5l.86-1.531h8.828c8.609 0 8.812 0 9.124-.313.297-.296.313-.515.313-5.937 0-5.422-.016-5.64-.313-5.938-.296-.296-.515-.312-5.562-.312h-5.234l.343-.625.36-.625H26.25v32.5zm40.938 4.688c-.954.953-1.75 1.296-3.22 1.374-1.124.063-1.39.016-2.124-.312-1.172-.547-1.907-1.234-2.469-2.344-.406-.812-.469-1.125-.469-2.156 0-1.031.063-1.344.469-2.156 1.203-2.407 3.906-3.375 6.328-2.297 1.063.469 1.797 1.14 2.36 2.14.406.75.453.97.453 2.313 0 1.703-.266 2.375-1.329 3.438zm9.062-4.688h-4.984l-.188-.672c-.656-2.469-2.61-4.547-5-5.281-1.328-.422-3.422-.406-4.719.031-2.359.781-4.203 2.688-4.875 5.016l-.25.906H28.75v-7.5h47.5v7.5zm0-10h-47.5V45h47.5v1.25z" fill="#000"/><path d="M19.063 40.313c-.204.203-.313.515-.313.937 0 1.094.313 1.25 2.422 1.25 2.11 0 2.422-.156 2.422-1.25S23.28 40 21.172 40c-1.594 0-1.828.031-2.11.313zM14.61 54.047c-1.36.625-2.11 1.875-2.11 3.484.016 2.219 1.516 3.719 3.75 3.719 2.25 0 3.75-1.5 3.75-3.75 0-1.625-.828-2.922-2.219-3.5-.812-.344-2.39-.313-3.172.047zm2.421 2.672c.172.172.313.515.313.781s-.14.61-.313.781c-.672.672-1.875.172-1.875-.781 0-.594.5-1.094 1.094-1.094.266 0 .61.14.781.313zm45.079-2.672c-1.36.625-2.11 1.875-2.11 3.484.016 2.219 1.516 3.719 3.75 3.719 2.25 0 3.75-1.5 3.75-3.75 0-1.625-.828-2.922-2.219-3.5-.812-.344-2.39-.313-3.172.047zm2.421 2.672c.172.172.313.515.313.781s-.14.61-.313.781c-.172.172-.515.313-.781.313s-.61-.14-.781-.313c-.172-.172-.313-.515-.313-.781s.14-.61.313-.781c.172-.172.515-.313.781-.313s.61.14.781.313z" fill="#000"/><path d="M68.266 31.156h-6.422a.56.56 0 01-.563-.562V24.25a.56.56 0 01.563-.563h6.422a.56.56 0 01.562.563v6.344a.56.56 0 01-.562.562z" stroke="#F8A51A" stroke-width="2.2" stroke-miterlimit="10"/><path d="M75.688 43.86H62c-.39 0-.719-.344-.719-.766V31.922c0-.422.328-.766.719-.766h13.688c.39 0 .718.344.718.766v11.172c-.015.422-.344.765-.719.765zm-15.172 0H36.78a.767.767 0 01-.765-.766V17.03c0-.422.343-.765.765-.765h23.735c.422 0 .765.343.765.765v26.08c0 .407-.343.75-.765.75z" stroke="#F8A51A" stroke-width="2.2" stroke-miterlimit="10"/><path d="M35.64 43.86h-4.265c-.203 0-.375-.344-.375-.766v-8.578c0-.422.172-.766.375-.766h4.266c.203 0 .375.344.375.766v8.578c0 .422-.172.765-.375.765z" stroke="#F8A51A" stroke-width="2.2" stroke-miterlimit="10"/><path d="M77.688 42.5H28.75v2.484h48.938V42.5z" fill="#000"/></svg>