<svg width="80" height="80" fill="none" xmlns="http://www.w3.org/2000/svg"><g clip-path="url(#clip0_367_177)"><path d="M13.281.11c-.562.218-1.125.734-1.406 1.296-.266.516-.313.922-.313 2.657v2.03h-.5c-.64 0-1.656.47-2.109.954-.562.61-.672 1.156-.672 3.281v2.016H5.61c-2.937 0-3.578.125-4.421.797C.155 14 0 14.594 0 17.64c0 2.343.031 2.765.297 3.265.687 1.344 1.969 2.063 3.64 2.063h.75v4.343c0 4.188.016 4.375.313 4.641.188.172.563.297.86.297.296 0 .671-.125.859-.297.297-.265.312-.453.312-4.64v-4.344H72.97v47.187H7.03v-17.5c0-17.297 0-17.5-.312-17.812-.188-.188-.516-.313-.86-.313-.343 0-.671.125-.859.313-.313.312-.313.515-.313 17.812v17.5H3.673c-1.156 0-1.781.219-2.563.875C.172 71.812 0 72.421 0 75.125c0 2.625.125 3.094 1.047 3.969C2.078 80.078-1 80 40.03 80c36.063 0 37.407-.016 38.016-.297.766-.36 1.39-1 1.703-1.766.39-.906.344-4.984-.047-5.828-.594-1.296-1.734-1.953-3.375-1.953h-1.016V22.97h.75c1.672 0 2.954-.719 3.641-2.063.266-.5.297-.922.297-3.265 0-3.047-.156-3.641-1.188-4.5-.843-.672-1.484-.797-4.421-.797h-2.672v-2.016c0-2.125-.11-2.672-.672-3.281-.453-.484-1.469-.953-2.094-.953h-.516V4.062c0-2.312-.203-2.953-1.124-3.625-.516-.359-.563-.359-4.891-.359s-4.375 0-4.89.36c-.923.671-1.126 1.312-1.126 3.624v2.032h-.5c-.64 0-1.656.468-2.11.953-.562.61-.671 1.156-.671 3.281v2.016h-26.25v-2.016c0-2.125-.11-2.672-.672-3.281-.453-.484-1.469-.953-2.094-.953h-.515V4.062c0-2.312-.203-2.953-1.125-3.625-.5-.359-.594-.359-4.735-.39-2.312-.016-4.328.015-4.453.062zm7.563 2.328c.203.078.25.39.25 1.874v1.782h-7.031V4.312c0-1.28.062-1.812.203-1.859.28-.125 6.28-.125 6.578-.015zm44.843 0c.204.078.25.39.25 1.874v1.782h-7.03V4.312c0-1.28.063-1.812.203-1.859.282-.125 6.282-.125 6.578-.015zM24.344 10.5l.047 1.844H10.78v-1.766c0-.984.047-1.828.11-1.875.046-.062 3.093-.094 6.75-.078l6.656.047.047 1.828zm44.843 0l.047 1.844H55.625v-1.766c0-.984.047-1.828.11-1.875.046-.062 3.093-.094 6.75-.078l6.656.047.046 1.828zm7.985 4.64c.422.422.531 1.11.453 2.985-.047 1.516-.063 1.61-.484 1.969l-.438.375H3.297l-.438-.375c-.421-.36-.437-.453-.484-1.969-.078-1.875.031-2.563.453-2.984.297-.297.86-.297 37.172-.297 36.313 0 36.875 0 37.172.297zm.031 57.813c.36.281.375.39.375 2.11 0 1.671-.031 1.828-.36 2.156l-.359.36H3.14l-.359-.36c-.328-.328-.36-.485-.36-2.156 0-1.72.017-1.829.376-2.11.36-.297 1.156-.297 37.203-.297 36.047 0 36.844 0 37.203.297z" fill="#000"/><path d="M10.375 25.453c-1.078.656-1-1.11-1 21 0 22.125-.078 20.484 1 21.14.469.282 1.172.298 20.531.298h20.063l.296-.375c.391-.485.391-1.329-.015-1.735-.313-.312-.516-.312-19.922-.312h-19.61V27.656h56.563V65.47h-6.922c-6.5 0-6.953.015-7.187.281-.47.516-.5 1.172-.063 1.688l.39.453h7.329c6.89 0 7.344-.016 7.797-.297 1.078-.656 1 .984 1-21.156V26.453l-.328-.422c-.735-.937 1.453-.875-30.328-.875-28.376 0-29.126.016-29.594.297z" fill="#000"/><path d="M41.922 34.484c-.688.391-10.016 9.235-10.297 9.766-.266.5-.282 1.734-.047 2.203.36.688.844 1.063 3.047 2.328l2.234 1.282-.234.546c-1.844 4.328-2.14 5.141-2.157 5.813 0 .953.532 1.797 1.375 2.187.813.36 1.25.36 2.063 0 .703-.312 9.906-8.968 10.39-9.765.376-.61.391-1.657.032-2.407-.281-.578-.594-.796-3.578-2.53l-1.594-.923.938-2.218c1.421-3.438 1.578-3.938 1.359-4.72-.406-1.546-2.156-2.312-3.531-1.562zm1 2.5c-.297.516-2.61 6.328-2.61 6.578 0 .594.657 1.126 3.125 2.532 1.375.781 2.5 1.484 2.5 1.547 0 .078-1.36 1.422-3 3a433.559 433.559 0 00-4.297 4.109c-.703.688-1.328 1.203-1.375 1.156-.047-.047.485-1.422 1.172-3.062.688-1.64 1.25-3.172 1.25-3.39 0-.61-.61-1.095-3.343-2.642l-2.454-1.406.36-.343c1.015-1 8.64-8.188 8.687-8.188.032 0 .016.047-.015.11zm-24.797 6.454c-.266.265-.313.515-.313 1.874v1.563H16.25c-1.36 0-1.61.047-1.875.313-.485.484-.422 1.453.094 1.859.359.281.64.328 1.875.328h1.468v1.547c0 1.5.016 1.562.407 1.875.53.422 1 .422 1.53 0 .392-.313.407-.375.407-1.875v-1.547h1.469c1.234 0 1.515-.047 1.875-.328.515-.406.578-1.375.094-1.86-.266-.265-.516-.312-1.875-.312h-1.563v-1.563c0-1.812-.203-2.187-1.172-2.187-.344 0-.672.125-.86.313zm38.281 3.748c-.484.484-.422 1.454.094 1.86.39.313.61.329 4.516.329s4.125-.016 4.515-.328c.516-.407.578-1.377.094-1.861-.297-.297-.516-.313-4.61-.313-4.093 0-4.312.016-4.609.313z" fill="#F8A51A"/></g><defs><clipPath id="clip0_367_177"><path fill="#fff" d="M0 0h80v80H0z"/></clipPath></defs></svg>