<svg width="80" height="80" fill="none" xmlns="http://www.w3.org/2000/svg"><g clip-path="url(#clip0_367_95)"><path d="M12.922 5.938c-.61.484-.735 1.203-.735 4.093v2.625h-4.89c-4.766 0-4.906.016-5.578.344-.375.203-.907.625-1.157.953l-.484.61-.047 3.718c-.047 3.5-.031 3.766.266 4.36.594 1.14 1.75 1.734 3.422 1.734h.812V62.61l-1.218.109c-1.5.14-2.36.593-2.922 1.578l-.407.672.047 3.765c.047 4.188.016 4.063 1.282 5.079l.593.484h76.188l.594-.484c1.265-1.016 1.234-.891 1.28-5.079l.048-3.765-.407-.672c-.562-.984-1.421-1.438-2.921-1.578l-1.22-.11V24.375h.829c1.656 0 2.812-.594 3.406-1.734.297-.594.313-.86.266-4.36l-.047-3.718-.484-.61c-.25-.328-.782-.75-1.157-.953-.672-.328-.812-.344-5.578-.344h-4.89v-2.625c0-2.89-.126-3.61-.735-4.094-.39-.312-.578-.312-8.812-.312h-8.422l-.5.453-.516.453-.047 3.063-.047 3.062h-3.843l-.094-1.406c-.14-1.86-.516-2.75-1.625-3.75-1.844-1.688-4.5-1.688-6.344 0-1.11 1-1.484 1.89-1.625 3.75l-.094 1.406H31.25V9.828c0-3.094-.125-3.687-.875-4.031-.281-.125-2.828-.172-8.719-.172-8.156 0-8.343 0-8.734.313zm15.047 4.843v1.875H15.625v-3.75h12.344v1.875zm36.406 0v1.875H52.031v-3.75h12.344v1.875zm-23.547-.937c.469.36.734 1.156.734 2.14v.672h-3.125v-.672c0-1.468.626-2.453 1.563-2.453.234 0 .61.14.828.313zm35.89 8.672v2.578h-30.28l-.47.39c-.562.47-.734 1.172-.437 1.875.453 1.063-.203 1.016 13.922 1.016h12.734v38.281H7.813V24.375h12.735c14.125 0 13.469.047 13.922-1.016.297-.703.125-1.406-.438-1.875l-.468-.39H3.282v-5.156h73.436v2.578zm0 50v2.578H3.282v-5.157H76.72v2.579z" fill="#000"/><path d="M38.89 21.547c-.359.375-.453.594-.453 1.14 0 .844.297 1.297 1.016 1.532.406.14.688.14 1.094 0 .719-.235 1.016-.688 1.016-1.532 0-.953-.641-1.593-1.563-1.593-.516 0-.75.093-1.11.453z" fill="#000"/><path d="M17.781 34.156c-.656.344-.75.672-.75 2.625v1.813h-1.75c-3.047 0-3.14.172-3.063 5.281l.047 3.344.516.453c.5.453.531.453 2.375.453h1.875v1.89c0 1.876 0 1.891.453 2.344l.453.453h3.813c3.656 0 3.828-.015 4.172-.328.53-.5.64-.953.64-2.734v-1.625h1.844c1.656 0 1.89-.031 2.203-.328.188-.172.406-.5.5-.719.078-.203.14-1.89.14-3.734 0-4.625-.077-4.75-3.046-4.75h-1.64V37.03c0-1.828-.22-2.515-.923-2.875-.672-.36-7.218-.36-7.859 0zm5.5 4.922c0 1.875 0 1.89.453 2.344.453.453.469.453 2.344.453h1.89v2.969h-1.625c-1.78 0-2.234.11-2.734.64-.297.313-.328.547-.328 2.203v1.844h-2.969L20.297 48c-.016-2.766-.375-3.156-3.063-3.156h-1.61v-2.969h1.798c1.765 0 1.796-.016 2.296-.453l.516-.453.063-1.89.046-1.892h2.938v1.891zm26.375-.234c-.828.437-.906.828-.906 4.5 0 1.843.063 3.531.14 3.734.094.219.313.547.5.719.36.328.438.328 8.844.328h8.485l.5-.453.515-.453.047-3.344c.063-3.875-.031-4.516-.797-4.969-.484-.297-.843-.312-8.703-.312-6.953.015-8.265.047-8.625.25zm14.719 4.515v1.485H52.031v-2.969h12.344v1.484z" fill="#F8A51A"/></g><defs><clipPath id="clip0_367_95"><path fill="#fff" d="M0 0h80v80H0z"/></clipPath></defs></svg>