<svg width="56" height="80" fill="none" xmlns="http://www.w3.org/2000/svg"><path d="M11.81.313c-.34.296-.357.515-.357 7.484v7.172l-3.168.062c-3.113.047-3.22.063-4.259.5-1.378.594-2.738 1.781-3.418 2.985l-.519.937v56.094l.52.937c.68 1.204 2.04 2.391 3.417 2.985l1.074.453h38.475l1.074-.453c1.199-.516 2.934-1.938 3.292-2.719l.233-.5h2.183c2.434 0 3.025-.188 3.687-1.125.358-.516.358-.844.358-27 0-25.969 0-26.5-.358-26.984-.609-.891-1.11-1.047-3.365-1.141l-2.058-.078-.214-.656c-.52-1.532-1.987-2.97-3.848-3.766-.948-.406-1.127-.422-4.151-.469l-3.186-.062V7.797c0-6.969-.018-7.188-.358-7.484C36.632.109 36.274 0 35.773 0c-.645 0-.86.11-1.79.89l-1.056.876L31.871.89C30.923.094 30.726 0 30.064 0c-.662 0-.859.094-1.807.89l-1.056.876L26.145.89C25.197.094 25 0 24.337 0c-.662 0-.858.094-1.807.89l-1.056.876L20.418.89C19.47.094 19.273 0 18.611 0c-.662 0-.859.094-1.807.89l-1.056.876L14.692.89c-.93-.781-1.145-.89-1.79-.89-.5 0-.859.11-1.091.313zm7.893 3.828c.912.765 1.11.859 1.771.859.662 0 .86-.094 1.808-.89l1.055-.876 1.056.875c.949.797 1.146.891 1.808.891.662 0 .859-.094 1.807-.89l1.056-.876 1.056.875c.912.766 1.163.891 1.753.891.376 0 .877-.11 1.092-.25l.394-.234V22.5H14.317V4.516l.393.234c.215.14.716.25 1.091.25.591 0 .841-.125 1.7-.86.573-.468 1.056-.859 1.092-.859.036 0 .537.39 1.11.86zM11.453 20v2.5h-1.79c-1.557 0-1.843.047-2.147.313-.483.421-.483 1.453 0 1.875.358.312.59.312 16.821.312 16.232 0 16.464 0 16.822-.313.483-.421.483-1.453 0-1.875-.304-.265-.59-.312-2.147-.312h-1.79v-5.046l2.56.077c2.934.078 3.74.297 4.795 1.328 1.235 1.188 1.145-.875 1.145 28.72v26.874l-.375.703c-.484.89-1.2 1.516-2.22 1.938-.805.328-.894.328-18.7.328-16.822 0-17.949-.016-18.736-.281-.985-.329-2.148-1.36-2.488-2.235-.215-.515-.25-5-.25-27.406 0-29.469-.072-27.453 1.127-28.625 1.163-1.125 1.933-1.328 5.28-1.36l2.093-.015V20zm40.085 28.125V73.75h-2.863V22.5h2.863v25.625z" fill="#000"/><path d="M16.105 9.063c-.232.203-.357.515-.357.937 0 .422.125.734.357.938.34.296.591.312 8.232.312 7.642 0 7.892-.016 8.232-.313.233-.203.358-.515.358-.937 0-.422-.125-.734-.358-.938-.34-.296-.59-.312-8.232-.312-7.641 0-7.892.016-8.232.313zm0 3.75c-.232.203-.357.515-.357.937 0 .422.125.734.357.938.34.296.591.312 8.232.312 7.642 0 7.892-.016 8.232-.313.233-.203.358-.515.358-.937 0-.422-.125-.734-.358-.938-.34-.296-.59-.312-8.232-.312-7.641 0-7.892.016-8.232.313zm0 3.75c-.232.203-.357.515-.357.937 0 .422.125.734.357.938.34.296.591.312 8.232.312 7.642 0 7.892-.016 8.232-.313.233-.203.358-.515.358-.937 0-.422-.125-.734-.358-.938-.34-.296-.59-.312-8.232-.312-7.641 0-7.892.016-8.232.313z" fill="#000"/><path d="M7.015 29.063a3.119 3.119 0 00-.93.812c-.34.5-.358.813-.358 8.25 0 7.438.017 7.75.357 8.25.197.281.609.64.931.813.573.312.948.312 17.323.312 16.374 0 16.75 0 17.322-.313a3.12 3.12 0 00.93-.812c.34-.5.359-.813.359-8.25 0-7.438-.018-7.75-.358-8.25a3.12 3.12 0 00-.93-.813c-.573-.296-.931-.312-12.259-.312-11.453 0-11.686 0-12.044.313-.232.203-.357.515-.357.937 0 .422.125.734.357.938.358.312.591.312 11.543.312h11.185V45H8.59V31.25h2.863c2.63 0 2.9-.031 3.221-.313.233-.203.358-.515.358-.937 0-.422-.125-.734-.358-.938-.34-.296-.59-.312-3.704-.312-3.042 0-3.418.031-3.955.313zm0 21.25c-1.11.593-1.288 1.078-1.288 3.437 0 2.36.179 2.844 1.288 3.438.519.265.913.312 3.006.312 2.094 0 2.488-.047 3.007-.313 1.11-.593 1.288-1.078 1.288-3.437 0-2.36-.179-2.844-1.288-3.438-.52-.265-.913-.312-3.007-.312-2.093 0-2.487.047-3.006.313zm4.295 3.437L11.238 55H8.59v-2.5h2.774l-.054 1.25zm5.726-3.437c-1.11.593-1.288 1.078-1.288 3.437 0 2.36.179 2.844 1.288 3.438.519.265.913.312 3.006.312 2.094 0 2.488-.047 3.007-.313 1.11-.593 1.288-1.078 1.288-3.437 0-2.36-.179-2.844-1.288-3.438-.52-.265-.913-.312-3.007-.312-2.093 0-2.487.047-3.006.313zm4.295 3.437L21.259 55h-2.648v-2.5h2.774l-.054 1.25zm5.727-3.437c-1.11.593-1.289 1.078-1.289 3.437 0 2.36.179 2.844 1.289 3.438.518.265.912.312 3.006.312s2.487-.047 3.006-.313c1.11-.593 1.289-1.078 1.289-3.437 0-2.36-.18-2.844-1.289-3.438-.519-.265-.912-.312-3.006-.312s-2.488.047-3.006.313zm4.294 3.437L31.281 55h-2.649v-2.5h2.774l-.054 1.25zm5.727-3.437c-1.11.593-1.288 1.078-1.288 3.437 0 2.36.178 2.844 1.288 3.438.859.453 3.722.453 4.581 0 1.11-.594 1.289-1.079 1.289-3.438 0-1.828-.054-2.172-.358-2.625-.627-.89-1.289-1.125-3.221-1.125-1.378 0-1.808.063-2.291.313zm-30.064 8.75c-1.11.593-1.288 1.078-1.288 3.437 0 1.828.053 2.172.357 2.625.68.969 1.235 1.125 3.937 1.125 2.094 0 2.488-.047 3.007-.313 1.11-.593 1.288-1.078 1.288-3.437 0-2.36-.179-2.844-1.288-3.438-.52-.265-.913-.312-3.007-.312-2.093 0-2.487.047-3.006.313zM11.31 62.5l-.072 1.25H8.59v-2.5h2.774l-.054 1.25zm5.726-3.437c-1.11.593-1.288 1.078-1.288 3.437 0 2.36.179 2.844 1.288 3.438.519.265.913.312 3.006.312 2.094 0 2.488-.047 3.007-.313 1.11-.593 1.288-1.078 1.288-3.437 0-2.36-.179-2.844-1.288-3.438-.52-.265-.913-.312-3.007-.312-2.093 0-2.487.047-3.006.313zm4.295 3.437l-.072 1.25h-2.648v-2.5h2.774l-.054 1.25zm5.727-3.437c-1.11.593-1.289 1.078-1.289 3.437 0 2.36.179 2.844 1.289 3.438.518.265.912.312 3.006.312s2.487-.047 3.006-.313c1.11-.593 1.289-1.078 1.289-3.437 0-2.36-.18-2.844-1.289-3.438-.519-.265-.912-.312-3.006-.312s-2.488.047-3.006.313zm4.294 3.437l-.071 1.25h-2.649v-2.5h2.774l-.054 1.25zm5.727-3.437a3.12 3.12 0 00-.93.812c-.34.5-.358.797-.358 7s.017 6.5.357 7c.627.89 1.289 1.125 3.222 1.125 1.932 0 2.594-.234 3.22-1.125.34-.5.359-.797.359-7s-.018-6.5-.358-7c-.627-.89-1.289-1.125-3.221-1.125-1.378 0-1.808.063-2.291.313zm2.863 7.812l-.036 5.625h-1.252V61.25h1.342l-.054 5.625zm-32.927.938c-1.11.593-1.288 1.078-1.288 3.437 0 2.36.179 2.844 1.288 3.438.519.265.913.312 3.006.312 2.094 0 2.488-.047 3.007-.313 1.11-.593 1.288-1.078 1.288-3.437 0-2.36-.179-2.844-1.288-3.438-.52-.265-.913-.312-3.007-.312-2.093 0-2.487.047-3.006.313zm4.295 3.437l-.072 1.25H8.59V70h2.774l-.054 1.25zm5.726-3.437c-1.11.593-1.288 1.078-1.288 3.437 0 2.36.179 2.844 1.288 3.438.519.265.913.312 3.006.312 2.094 0 2.488-.047 3.007-.313 1.11-.593 1.288-1.078 1.288-3.437 0-2.36-.179-2.844-1.288-3.438-.52-.265-.913-.312-3.007-.312-2.093 0-2.487.047-3.006.313zm4.295 3.437l-.072 1.25h-2.648V70h2.774l-.054 1.25zm5.727-3.437c-1.11.593-1.289 1.078-1.289 3.437 0 2.36.179 2.844 1.289 3.438.518.265.912.312 3.006.312s2.487-.047 3.006-.313c1.11-.593 1.289-1.078 1.289-3.437 0-2.36-.18-2.844-1.289-3.438-.519-.265-.912-.312-3.006-.312s-2.488.047-3.006.313zm4.294 3.437l-.071 1.25h-2.649V70h2.774l-.054 1.25z" fill="#F8A51A"/></svg>