<svg width="92" height="80" fill="none" xmlns="http://www.w3.org/2000/svg"><g clip-path="url(#clip0_119_271)"><path d="M42.608.25c-1.539.281-2.505.594-4.08 1.328-5.494 2.547-8.697 7.453-8.393 12.875.179 3.297 1.396 5.985 3.83 8.469l.805.828h-7.856c-4.581 0-8.321.063-9.001.172-1.45.203-2.792.719-3.705 1.453-1.503 1.172-1.539 1.297-5.064 14.938-1.79 6.921-4.42 17.078-5.834 22.578C.483 73.766.357 74.484 1.002 76.063c.68 1.64 2.47 3.171 4.277 3.671.876.25 4.08.266 40.783.266h39.835l1.002-.328c2.684-.875 4.42-3.016 4.42-5.469 0-1.39-11.453-45.875-12.133-47.11-.895-1.655-2.863-2.874-5.082-3.187-.662-.078-4.51-.156-9.02-.156-7.623 0-7.838-.016-7.605-.297.143-.156.644-.703 1.11-1.203 2.38-2.547 3.632-6.516 3.167-10C60.933 6.266 55.958 1.469 49.301.234c-1.557-.28-5.136-.28-6.693.016zm6.8 4.125c3.383.984 6.21 3.422 7.373 6.39.34.876.412 1.344.412 3.063s-.072 2.188-.412 3.063c-1.18 2.968-3.937 5.359-7.373 6.406-1.664.515-4.92.515-6.71.031-3.508-.969-6.407-3.453-7.534-6.5-.68-1.828-.698-4.172-.018-5.984 1.02-2.703 3.257-4.89 6.263-6.094 2.309-.906 5.637-1.078 8-.375zm24.839 23.75c.322.172.698.547.841.828.286.61 11.722 44.766 11.722 45.281 0 .532-.609 1.344-1.235 1.625-.483.22-4.582.235-39.835.204l-39.316-.047-.609-.579c-.483-.468-.608-.718-.608-1.218 0-.766 11.381-44.89 11.74-45.485.572-.968-1.397-.906 28.972-.922 27.505 0 27.737 0 28.328.313z" fill="#000"/><path d="M29.008 48.672v11.953h4.652v-6.187l.5-.407.484-.422 2.863 3.516 2.863 3.5h2.81c1.557 0 2.827-.047 2.827-.11 0-.046-1.771-2.171-3.955-4.687-2.165-2.531-3.99-4.703-4.044-4.812-.053-.141 1.128-1.344 3.096-3.157 1.754-1.609 3.418-3.172 3.722-3.453l.537-.5H39.44l-2.846 2.89-2.845 2.892-.054-6.485-.035-6.484h-4.652v11.953z" fill="#F8A51A"/><path d="M51.394 43.844c-3.042.703-5.476 3.11-6.192 6.078-1.127 4.719 1.217 9.094 5.512 10.266 2.076.562 4.742.296 6.442-.657l.842-.468v.593c0 1.547-.967 3.016-2.398 3.657-1.629.734-4.725.5-6.962-.532-.554-.265-1.091-.437-1.163-.375-.072.063-.376.813-.68 1.672l-.555 1.547.788.39c1.413.688 3.042 1.047 5.171 1.126 5.512.234 9.02-1.735 10.076-5.657.232-.843.34-3.78.429-12.156l.072-5.422h-4.242v1.297l-.393-.297c-1.557-1.203-4.313-1.64-6.747-1.062zm3.937 3.36c.966.296 1.736.874 2.22 1.702.41.719.447.922.447 3.11 0 2.234-.018 2.359-.502 3.156-.858 1.453-2.451 2.14-4.223 1.844-1.378-.22-2.237-.828-2.97-2.078-.609-1.047-.627-1.141-.627-2.813 0-1.86.269-2.656 1.253-3.781.913-1.047 2.935-1.563 4.402-1.14z" fill="#F8A51A"/></g><defs><clipPath id="clip0_119_271"><path fill="#fff" transform="translate(.017)" d="M0 0h91.624v80H0z"/></clipPath></defs></svg>