<svg width="80" height="80" fill="none" xmlns="http://www.w3.org/2000/svg"><path d="M15.312 1.563c-.297.297-.312.515-.312 5.312 0 5.86-.063 5.625 1.562 5.625h.938v1.781l-1.25 1.282-1.25 1.28v29.548c0 32.64-.078 30.125.984 31.25.281.281.781.656 1.125.812.594.282 1.531.297 22.86.297 24.546 0 22.796.078 23.922-.984.28-.281.656-.781.812-1.125.281-.594.297-1.485.297-20.766v-20.14l-2.672-9.079c-1.953-6.687-2.797-9.296-3.156-9.921-.61-1.032-1.594-1.907-2.75-2.47l-.875-.437H38.985l-.86.422a9.285 9.285 0 00-1.688 1.156l-.843.735-.922-.922c-.907-.906-.922-.922-.922-1.813V12.5h.937c1.625 0 1.563.235 1.563-5.625 0-4.797-.016-5.015-.313-5.312-.312-.313-.515-.313-10.312-.313-9.797 0-10 0-10.313.313zM33.75 6.875V10H17.5V3.75h16.25v3.125zm-2.5 6.25v.625H20V12.5h11.25v.625zm1.484 4.063l.938.937-8.094 8.094-8.078 8.078v-6.796h6.25V25H17.5v-2.5h6.25V20H17.5v-.891c0-.891 0-.907.969-1.875l.968-.985h12.375l.922.938zm22.344-.578c.797.359 1.687 1.234 2.016 1.953.14.328 1.39 4.437 2.78 9.172l2.532 8.593.063 3.078.062 3.094h-2.984c-3.313 0-3.735.094-4.688.985-.765.734-1.11 1.562-1.11 2.765s.345 2.031 1.11 2.766c.953.89 1.375.984 4.672.984H62.5v3.75h-2.97c-3.297 0-3.719.094-4.672.985-.75.718-1.11 1.578-1.11 2.734 0 1.14.298 1.937.985 2.672.953 1 1.39 1.11 4.766 1.11h3V65h-3c-3.375 0-3.813.11-4.766 1.11-.687.734-.984 1.515-.984 2.64 0 1.125.297 1.906.984 2.64.953 1 1.39 1.11 4.766 1.11h3v1.156c0 1.516-.219 2.094-.875 2.375-.438.188-3.938.22-21.625.22-23.219 0-21.969.046-22.328-.938-.125-.375-.172-5.563-.172-18.813V38.203L28.25 27.47c10.906-10.89 10.89-10.875 12.219-11.11.218-.046 3.453-.062 7.187-.046 6.172.015 6.86.047 7.422.297zM62.5 46.25v1.25h-2.422c-2.734 0-3.438-.172-3.61-.844a2.364 2.364 0 010-.812c.172-.672.829-.828 3.579-.844H62.5v1.25zm0 11.25v1.25h-2.422c-2.734 0-3.438-.172-3.61-.844a2.364 2.364 0 010-.812c.172-.672.829-.828 3.579-.844H62.5v1.25zm0 11.25V70h-2.422c-2.734 0-3.438-.172-3.61-.844a2.364 2.364 0 010-.812c.172-.672.829-.828 3.579-.844H62.5v1.25z" fill="#000"/><path d="M18.75 6.875V8.75h2.5V5h-2.5v1.875zm3.75 0V8.75H25V5h-2.5v1.875zm3.75 0V8.75h2.5V5h-2.5v1.875zm3.75 0V8.75h2.5V5H30v1.875zm11.125 12.188c-.938.578-1.125 1.093-1.125 3.14 0 1.625.031 1.86.36 2.313.203.312 3.437 2.64 8.453 6.125C56.016 35.609 57 36.25 57.53 36.25c.766 0 1.219-.438 1.219-1.172 0-.75-3.547-14.844-3.844-15.312-.14-.22-.484-.532-.765-.703-.485-.297-.766-.313-6.5-.313-5.72 0-6.032.016-6.516.313zM54 26.483c.719 2.828 1.266 5.172 1.234 5.203-.03.032-2.89-1.906-6.359-4.296l-6.297-4.36-.047-.89-.047-.891 5.11.031 5.125.047L54 26.484z" fill="#000"/><path d="M25.281 34.031L20 39.297v17.547c0 17.328 0 17.531.313 17.843.312.313.515.313 15.937.313 15.422 0 15.625 0 15.938-.313.312-.312.312-.515.312-19.046 0-17.61-.016-18.75-.266-19.047-.156-.172-2.265-2-4.703-4.078l-4.406-3.766H30.547l-5.266 5.281zm20.657.688L50 38.203V72.5H22.5V40.703l4.719-4.719 4.734-4.734h9.922l4.063 3.469z" fill="#F8A51A"/><path d="M35.453 42.656c-.156.094-1.39 2.969-2.812 6.516l-2.563 6.375v1.797c0 1.718.031 1.86.5 2.812a6.707 6.707 0 003.016 3.016c.937.469 1.125.5 2.656.5 1.547 0 1.719-.031 2.672-.5 1.25-.625 2.484-1.875 3.078-3.125.375-.813.422-1.078.422-2.703v-1.797l-2.563-6.375c-1.656-4.125-2.656-6.422-2.828-6.516-.375-.203-1.25-.187-1.578 0zm2.64 9.266c1.548 3.906 1.75 4.547 1.75 5.36-.015 1.577-.702 2.75-2.062 3.437-.984.5-2.078.5-3.062 0-.907-.453-1.328-.907-1.735-1.813-.64-1.406-.53-1.937 1.422-6.906.969-2.469 1.797-4.5 1.844-4.5.047 0 .875 2 1.844 4.422z" fill="#F8A51A"/></svg>