<svg width="30" height="30" fill="none" xmlns="http://www.w3.org/2000/svg"><g clip-path="url(#clip0_119_1308)" fill="#fff"><path d="M14.121 3.404C10.63 3.64 7.295 5.584 5.31 8.55c-.604.908-1.383 2.584-1.383 2.976.006.264.21.65.422.78.287.175.539.205.832.093.351-.134.463-.275.709-.914.492-1.289 1.172-2.32 2.226-3.369.815-.814 1.43-1.277 2.373-1.775 4.418-2.338 10.078-.873 12.762 3.299.451.703 1.184 2.361 1.184 2.683 0 .035-.364-.293-.809-.732-.44-.44-.879-.826-.967-.861-.416-.159-.902-.012-1.142.345-.118.176-.135.258-.118.574l.024.37 1.933 1.927c1.694 1.694 1.957 1.928 2.15 1.97.505.087.57.04 2.52-1.9.997-.99 1.846-1.869 1.893-1.956.117-.229.105-.744-.03-.944a.954.954 0 00-.972-.416c-.205.03-.357.158-1.33 1.125a36.763 36.763 0 01-1.102 1.067c-.006-.018-.093-.375-.205-.797a11.626 11.626 0 00-7.236-8.01c-1.488-.557-3.223-.797-4.922-.68zM3.837 14.115c-.287.182-3.709 3.656-3.78 3.832A.92.92 0 001.19 19.16c.199-.058.45-.27 1.283-1.101 1.02-1.008 1.037-1.026 1.072-.856.293 1.283.522 1.951.996 2.936 1.694 3.48 5.139 5.924 9.018 6.404.674.082 2.226.082 2.853 0a11.864 11.864 0 005.707-2.338c.528-.398 1.577-1.441 1.993-1.969.773-.996 1.511-2.32 1.845-3.322.211-.633.041-1.084-.486-1.3-.246-.106-.31-.112-.557-.048-.38.106-.55.305-.802.95-.516 1.318-1.172 2.314-2.227 3.375-1.365 1.365-2.977 2.261-4.781 2.648a9.975 9.975 0 01-7.963-1.646c-.627-.452-1.559-1.377-2.069-2.063-.603-.808-1.26-2.191-1.535-3.252-.029-.1.217.106.803.68.457.457.897.861.967.896.193.1.61.076.838-.047.38-.199.568-.732.404-1.16-.082-.216-3.603-3.756-3.844-3.861-.27-.117-.656-.1-.867.03z"/></g><defs><clipPath id="clip0_119_1308"><path fill="#fff" d="M0 0h30v30H0z"/></clipPath></defs></svg>