<svg width="9" height="8" fill="none" xmlns="http://www.w3.org/2000/svg"><g clip-path="url(#clip0_119_345)"><path d="M8.25 1.127c-.203.034-.09-.07-2.317 2.153L3.875 5.336l-.942-.939c-.872-.87-.949-.942-1.04-.981a.643.643 0 00-.791.231A.584.584 0 001 4c0 .138.03.242.094.342.025.04.578.605 1.23 1.255C3.616 6.89 3.558 6.84 3.78 6.874a.64.64 0 00.39-.061c.096-.046.232-.178 2.41-2.356 2.217-2.218 2.31-2.313 2.36-2.418.048-.103.051-.118.051-.28 0-.16-.003-.18-.048-.274a.645.645 0 00-.694-.358z" fill="#1C195E"/></g><defs><clipPath id="clip0_119_345"><path fill="#fff" transform="translate(.357)" d="M0 0h7.988v8H0z"/></clipPath></defs></svg>