<svg width="20" height="20" fill="none" xmlns="http://www.w3.org/2000/svg"><g clip-path="url(#clip0_367_80)" fill="#fff"><path d="M7.93.883a9.263 9.263 0 00-5.254 2.613A9.113 9.113 0 00.059 8.801c-.067.535-.078 1.758-.02 2.254a9.25 9.25 0 004.364 6.78c1.109.677 2.28 1.083 3.644 1.27.547.078 1.828.067 2.402-.02a9.322 9.322 0 004.278-1.788c.492-.367 1.398-1.281 1.77-1.777.769-1.043 1.261-2.067 1.57-3.27.21-.84.27-1.332.27-2.309 0-.785-.009-.875-.083-1.039-.11-.242-.281-.36-.555-.379-.242-.015-.41.067-.566.278-.078.105-.082.164-.086 1.035-.004.66-.023 1.039-.07 1.312-.293 1.77-1.074 3.278-2.332 4.497-2.809 2.718-7.094 2.988-10.211.644a7.978 7.978 0 01-3.008-4.766c-.14-.664-.18-1.894-.082-2.593A7.865 7.865 0 013.59 4.422a7.88 7.88 0 014.496-2.254c.516-.07 1.52-.082 2.02-.02A8.084 8.084 0 0113.2 3.211c.308.191.355.207.578.207.257 0 .382-.063.53-.262.106-.14.13-.445.056-.625-.086-.203-.333-.37-1.102-.754A8.75 8.75 0 0010.34.88C9.766.805 8.5.809 7.93.883z"/><path d="M19.082 1.703c-.062.035-2.09 2.035-4.5 4.441l-4.386 4.383-1.688-1.683c-.93-.93-1.73-1.707-1.777-1.73-.145-.075-.477-.052-.625.038-.262.164-.36.559-.211.848.074.14 3.793 3.879 3.988 4.008.121.078.473.082.617.008.059-.032 2.215-2.168 4.79-4.747l4.687-4.687.015-.254c.016-.21.004-.277-.07-.394-.16-.262-.566-.372-.84-.231z"/></g><defs><clipPath id="clip0_367_80"><path fill="#fff" d="M0 0h20v20H0z"/></clipPath></defs></svg>