<svg width="20" height="20" fill="none" xmlns="http://www.w3.org/2000/svg"><g clip-path="url(#clip0_367_1664)"><path d="M8.75.059a9.935 9.935 0 00-4.262 1.578C2.52 2.945 1.086 4.859.414 7.086c-.16.516-.316 1.3-.375 1.828a15.5 15.5 0 000 2.172c.422 3.96 3.223 7.344 7.047 8.5.516.16 1.3.316 1.828.375.488.05 1.684.05 2.172 0a9.969 9.969 0 006.105-2.992 9.887 9.887 0 002.395-4.055c.289-.95.414-1.828.414-2.914 0-.816-.04-1.266-.18-1.973-.707-3.593-3.386-6.547-6.906-7.613-.516-.16-1.3-.316-1.828-.375-.512-.055-1.832-.043-2.336.02zm4.527 6.23c.184.05.387.258.438.438.082.312.074.324-1.457 1.855L10.84 10l1.39 1.395c1.5 1.507 1.524 1.535 1.446 1.835a.726.726 0 01-.45.446c-.292.082-.328.054-1.832-1.446L10 10.84l-1.398 1.394c-.766.766-1.434 1.41-1.48 1.434-.134.066-.36.05-.52-.04-.258-.144-.391-.515-.27-.75.023-.046.668-.714 1.434-1.48L9.16 10 7.75 8.586C6.23 7.059 6.238 7.07 6.328 6.762a.72.72 0 01.442-.438c.3-.078.328-.054 1.835 1.446L10 9.16l1.418-1.418c1.531-1.527 1.547-1.543 1.86-1.453z" fill="#1C195E"/></g><defs><clipPath id="clip0_367_1664"><path fill="#fff" d="M0 0h20v20H0z"/></clipPath></defs></svg>