<svg width="16" height="16" fill="none" xmlns="http://www.w3.org/2000/svg"><g clip-path="url(#clip0_367_1735)"><path d="M7 .047a7.948 7.948 0 00-3.41 1.262A8.01 8.01 0 00.332 5.67a9.134 9.134 0 00-.3 1.462 12.4 12.4 0 000 1.738 8.034 8.034 0 005.638 6.8 9.14 9.14 0 001.462.3c.391.04 1.347.04 1.738 0a7.975 7.975 0 004.884-2.394 7.909 7.909 0 001.916-3.244A7.65 7.65 0 0016 8c0-.653-.031-1.013-.144-1.578a8.014 8.014 0 00-5.525-6.09 9.133 9.133 0 00-1.462-.3A12.428 12.428 0 007 .046zm3.622 4.984a.58.58 0 01.35.35c.066.25.06.26-1.166 1.484L8.672 8l1.113 1.115c1.2 1.207 1.218 1.229 1.156 1.47a.58.58 0 01-.36.355c-.234.066-.262.044-1.465-1.156L8 8.672 6.881 9.787c-.612.613-1.146 1.128-1.184 1.147-.106.053-.287.04-.416-.031-.206-.116-.312-.413-.215-.6.019-.038.534-.572 1.147-1.184l1.115-1.12L6.2 6.87C4.985 5.648 4.99 5.657 5.063 5.41a.577.577 0 01.353-.35c.24-.062.262-.044 1.469 1.156L8 7.328l1.135-1.134c1.225-1.222 1.237-1.235 1.487-1.163z" fill="#000"/></g><defs><clipPath id="clip0_367_1735"><path fill="#fff" d="M0 0h16v16H0z"/></clipPath></defs></svg>