<svg width="16" height="16" fill="none" xmlns="http://www.w3.org/2000/svg"><g clip-path="url(#clip0_367_1303)" fill="#000"><path d="M.568 1.822c-.35.129-.562.45-.562.85 0 .416.241.753.62.87.23.066 14.517.066 14.746 0 .088-.03.225-.105.308-.171.413-.342.43-1 .034-1.374-.27-.258.212-.242-7.731-.238-6.233 0-7.274.009-7.415.063zm0 5.329c-.35.13-.562.45-.562.85 0 .416.241.753.62.87.225.066 9.193.066 9.417 0 .38-.117.62-.454.62-.87 0-.409-.212-.725-.578-.854-.266-.092-9.259-.092-9.517.004zm0 5.329c-.35.129-.562.45-.562.85 0 .424.25.765.641.87.12.037.858.045 2.565.037 2.627-.013 2.497 0 2.764-.267.191-.191.25-.345.254-.64 0-.355-.142-.613-.429-.78l-.196-.116-2.435-.008c-2.053-.008-2.46 0-2.602.054z"/></g><defs><clipPath id="clip0_367_1303"><path fill="#fff" d="M0 0h16v16H0z"/></clipPath></defs></svg>