<svg width="16" height="14" fill="none" xmlns="http://www.w3.org/2000/svg"><g clip-path="url(#clip0_367_574)"><path d="M.89 2.01c-.394.125-.696.393-.834.743C.003 2.89 0 3.02 0 6.6c0 3.602.003 3.707.056 3.85.138.352.443.62.848.742.159.046.338.049 6.612.049s6.453-.003 6.611-.05c.405-.12.71-.389.849-.742.052-.142.055-.247.055-3.849 0-3.602-.003-3.707-.055-3.85-.138-.352-.444-.62-.849-.742-.158-.046-.335-.049-6.623-.046-6.221 0-6.468.003-6.614.049zM10.9 5.003C8.44 7.152 8.3 7.27 8.098 7.358c-.25.108-.5.144-.763.113a1.54 1.54 0 01-.4-.113c-.202-.088-.343-.206-2.803-2.356L1.54 2.735h11.95L10.9 5.002zm-7.935.113L4.653 6.6 2.766 8.258.88 9.913V3.32l.2.154c.108.088.956.825 1.884 1.64zm11.186 1.503v3.295l-1.885-1.658L10.378 6.6l1.867-1.637c1.028-.9 1.876-1.637 1.885-1.637.012 0 .02 1.482.02 3.292zm-8.544.822c.726.642 1.175.84 1.909.84.396 0 .675-.056.992-.195.261-.116.464-.258.878-.616l.329-.284.287.235c.159.129 1.007.866 1.888 1.64l1.6 1.407H1.541L3.408 8.83c1.028-.9 1.882-1.637 1.897-1.637.012 0 .15.11.302.247z" fill="#000"/></g><defs><clipPath id="clip0_367_574"><path fill="#fff" d="M0 0h15.031v13.2H0z"/></clipPath></defs></svg>