<svg width="16" height="16" fill="none" xmlns="http://www.w3.org/2000/svg"><path d="M7.122 1.062a5.007 5.007 0 00-3.718 2.966 4.94 4.94 0 00.128 4.16c.084.162 1.034 1.73 2.115 3.484 1.5 2.428 1.99 3.203 2.072 3.256.144.1.419.1.566 0 .078-.053.562-.813 2.05-3.225 1.068-1.738 2.022-3.303 2.115-3.484a4.934 4.934 0 00.297-3.797 5.847 5.847 0 00-.715-1.39c-.803-1.07-1.903-1.754-3.178-1.97a6.178 6.178 0 00-1.732 0zm1.46 3.563c.534.184.984.697 1.106 1.253.056.25.025.716-.056.95a1.81 1.81 0 01-1.26 1.11c-.25.056-.715.024-.95-.057a1.805 1.805 0 01-1.11-1.26c-.05-.227-.024-.712.05-.934.145-.431.57-.872 1.007-1.047.36-.143.831-.15 1.213-.015z" fill="#F8A51A"/></svg>