<svg width="50" height="50" fill="none" xmlns="http://www.w3.org/2000/svg"><path d="M22.256 3.32c-5.156.909-9.512 4.385-11.621 9.268a15.436 15.436 0 00.4 12.998c.264.508 3.233 5.41 6.611 10.889 4.688 7.587 6.221 10.01 6.475 10.175.45.313 1.309.313 1.768 0 .244-.166 1.758-2.539 6.406-10.078 3.34-5.43 6.318-10.322 6.611-10.888a15.42 15.42 0 00.928-11.866c-.43-1.308-1.445-3.29-2.236-4.345-2.51-3.34-5.948-5.479-9.932-6.153-1.494-.254-3.945-.254-5.41 0zm4.56 11.133c1.67.576 3.077 2.178 3.457 3.916.176.781.079 2.236-.175 2.969-.616 1.69-2.198 3.086-3.936 3.467-.781.175-2.236.078-2.969-.176-1.69-.615-3.086-2.197-3.466-3.936-.157-.713-.079-2.226.156-2.92.449-1.347 1.777-2.724 3.144-3.271 1.123-.45 2.598-.469 3.79-.049z" fill="#1C195E"/></svg>