<svg width="22" height="18" fill="none" xmlns="http://www.w3.org/2000/svg"><g clip-path="url(#clip0_367_460)"><path d="M3.45.056c-.222.067-.468.25-1.361 1.01-.988.84-1.242 1.17-1.475 1.922C.474 3.438.442 4.36.54 4.94c.406 2.337 2.418 5.298 5.372 7.889 3.34 2.932 6.97 4.802 9.957 5.14.59.066 1.635.024 2.11-.085.881-.2 1.262-.415 2.242-1.262 1.18-1.023 1.241-1.1 1.241-1.61 0-.482.012-.468-2.098-2.271-2.098-1.793-1.987-1.72-2.614-1.72-.512.004-.623.06-1.438.742-.71.595-.894.707-1.336.805-.693.155-1.246-.007-2.532-.738a12.159 12.159 0 01-2.07-1.459 11.126 11.126 0 01-1.7-1.775c-.852-1.104-1.04-1.579-.86-2.173.114-.383.245-.541.938-1.15.766-.667.848-.783.877-1.191.012-.215 0-.31-.074-.478-.086-.2-.189-.296-1.942-1.804C4.494-.025 4.527-.003 3.949.004a2.22 2.22 0 00-.5.052z" fill="#F8A51A"/></g><defs><clipPath id="clip0_367_460"><path fill="#fff" transform="translate(.483)" d="M0 0h20.979v18H0z"/></clipPath></defs></svg>