<svg width="16" height="16" fill="none" xmlns="http://www.w3.org/2000/svg"><g clip-path="url(#clip0_367_579)"><path d="M5.856 3.826c-.188.094-.399.314-.384.404.006.053.05.077.217.132.366.115.563.355.627.753.091.566.085 1.743-.012 2.203-.146.712-.507.718-1.043.01-.487-.642-1.065-1.67-1.481-2.629-.161-.372-.261-.51-.434-.6-.117-.059-.158-.062-1.328-.059-1.279 0-1.355.006-1.478.138-.056.061-.065.093-.053.24.012.14.076.302.372.932.663 1.406 1.285 2.537 1.918 3.486 1.038 1.553 1.87 2.37 2.938 2.886.815.392 1.563.542 2.613.524.478-.011.536-.017.662-.079.197-.097.25-.223.288-.67.038-.429.088-.637.214-.889.15-.301.366-.395.63-.272.117.053.499.425 1.117 1.087.417.448.637.618.942.738l.19.074 1.37.008c1.518.009 1.504.012 1.65-.181.1-.132.13-.384.065-.569-.135-.383-.569-.914-1.504-1.837-.86-.846-.915-.92-.88-1.195.024-.2.097-.313.877-1.362.37-.495.771-1.052.897-1.237.425-.627.648-1.119.648-1.424 0-.14-.012-.175-.082-.246-.155-.152-.223-.16-1.736-.16-1.31 0-1.399.002-1.504.055-.144.07-.22.187-.387.603-.431 1.055-1.047 2.113-1.598 2.746-.39.448-.531.5-.733.28-.203-.213-.206-.245-.206-1.865 0-1.541-.014-1.705-.152-1.899a.478.478 0 00-.182-.143c-.111-.05-.217-.056-1.516-.056H6.005l-.15.073z" fill="#fff"/></g><defs><clipPath id="clip0_367_579"><path fill="#fff" transform="translate(.481 .501)" d="M0 0h15.013v15H0z"/></clipPath></defs></svg>