<svg width="20" height="20" fill="none" xmlns="http://www.w3.org/2000/svg"><path d="M10.121 0C4.911 0 .684 4.225.684 9.432c0 2.085.675 4.005 1.817 5.569l-1.202 3.555 3.75-1.168a9.421 9.421 0 005.072 1.476c5.21 0 9.438-4.225 9.438-9.432C19.56 4.225 15.332 0 10.121 0zm4.321 14.49c-1.713.687-3.755.023-5.99-1.673-2.234-1.695-3.706-4.082-3.804-5.854-.1-1.772 1.345-2.667 2.13-2.661.785.005 1.647 2.513 1.658 2.897.01.39-.96 1.08-1 1.41-.038.329 1.324 1.953 1.9 2.392.571.434 1.752 1.268 2.361 1.19.604-.082 1.005-1.294 1.39-1.371.383-.077 2.48.966 2.69 1.235.208.274.186 1.832-1.335 2.436z" fill="#fff"/></svg>